# Blender v2.83.4 OBJ File: 'untitled.blend'
# www.blender.org
mtllib cube.mtl
o Cube.001
v -6.000000 -0.000000 -8.000000
v -10.000000 0.000000 -16.000000
v -6.000000 0.000000 -16.000000
v -10.000000 4.000000 -16.000000
v -6.000002 4.000000 -7.999996
v -6.000000 4.000000 -15.999996
v -6.000002 4.000000 -7.999996
v -10.000000 -0.000000 -8.000000
v -6.000000 -0.000000 -8.000000
v -6.000000 4.000000 -15.999996
v -6.000000 -0.000000 -8.000000
v -6.000000 0.000000 -16.000000
v -6.000000 0.000000 -16.000000
v -10.000000 4.000000 -16.000000
v -6.000000 4.000000 -15.999996
v -10.000000 -0.000000 -8.000000
v -10.000000 4.000000 -16.000000
v -10.000000 0.000000 -16.000000
v -10.000000 -0.000000 -8.000000
v -10.000000 4.000000 -8.000000
v -10.000000 4.000000 -8.000000
v -6.000002 4.000000 -7.999996
v -10.000000 0.000000 -16.000000
v -10.000000 4.000000 -8.000000
vt 0.500000 0.250000
vt 0.750000 0.500000
vt 0.500000 0.500000
vt 0.000100 0.500000
vt 0.250000 0.250000
vt 0.250000 0.500000
vt 0.999900 0.000100
vt 0.750000 0.250000
vt 0.750000 0.000100
vt 0.250000 0.500000
vt 0.500000 0.250000
vt 0.500000 0.500000
vt 0.750000 0.750000
vt 0.999900 0.500000
vt 0.999900 0.750000
vt 0.750000 0.250000
vt 0.999900 0.500000
vt 0.750000 0.500000
vt 0.750000 0.250000
vt 0.000100 0.250000
vt 0.999900 0.250000
vt 0.250000 0.250000
vt 0.750000 0.500000
vt 0.999900 0.250000
vn 0.0000 -1.0000 -0.0000
vn 0.0000 1.0000 0.0000
vn -0.0000 -0.0000 1.0000
vn 1.0000 0.0000 0.0000
vn 0.0000 0.0000 -1.0000
vn -1.0000 0.0000 0.0000
usemtl Material.001
s 1
f 1/1/1 2/2/1 3/3/1
f 4/4/2 5/5/2 6/6/2
f 7/7/3 8/8/3 9/9/3
f 10/10/4 11/11/4 12/12/4
f 13/13/5 14/14/5 15/15/5
f 16/16/6 17/17/6 18/18/6
f 1/1/1 19/19/1 2/2/1
f 4/4/2 20/20/2 5/5/2
f 7/7/3 21/21/3 8/8/3
f 10/10/4 22/22/4 11/11/4
f 13/13/5 23/23/5 14/14/5
f 16/16/6 24/24/6 17/17/6
o Cube.002
v 10.000000 -0.000001 -8.000000
v 6.000000 0.000001 -16.000000
v 10.000000 0.000001 -16.000000
v 6.000000 4.000001 -16.000000
v 9.999998 4.000000 -7.999996
v 10.000000 4.000001 -15.999996
v 9.999998 4.000000 -7.999996
v 6.000000 -0.000001 -8.000000
v 10.000000 -0.000001 -8.000000
v 10.000000 4.000001 -15.999996
v 10.000000 -0.000001 -8.000000
v 10.000000 0.000001 -16.000000
v 10.000000 0.000001 -16.000000
v 6.000000 4.000001 -16.000000
v 10.000000 4.000001 -15.999996
v 6.000000 -0.000001 -8.000000
v 6.000000 4.000001 -16.000000
v 6.000000 0.000001 -16.000000
v 6.000000 -0.000001 -8.000000
v 6.000000 4.000000 -8.000000
v 6.000000 4.000000 -8.000000
v 9.999998 4.000000 -7.999996
v 6.000000 0.000001 -16.000000
v 6.000000 4.000000 -8.000000
vt 0.500000 0.250000
vt 0.750000 0.500000
vt 0.500000 0.500000
vt 0.000100 0.500000
vt 0.250000 0.250000
vt 0.250000 0.500000
vt 0.999900 0.000100
vt 0.750000 0.250000
vt 0.750000 0.000100
vt 0.250000 0.500000
vt 0.500000 0.250000
vt 0.500000 0.500000
vt 0.750000 0.750000
vt 0.999900 0.500000
vt 0.999900 0.750000
vt 0.750000 0.250000
vt 0.999900 0.500000
vt 0.750000 0.500000
vt 0.750000 0.250000
vt 0.000100 0.250000
vt 0.999900 0.250000
vt 0.250000 0.250000
vt 0.750000 0.500000
vt 0.999900 0.250000
vn 0.0000 -1.0000 -0.0000
vn -0.0000 1.0000 0.0000
vn -0.0000 -0.0000 1.0000
vn 1.0000 0.0000 0.0000
vn 0.0000 0.0000 -1.0000
vn -1.0000 -0.0000 0.0000
usemtl Material.001
s 1
f 25/25/7 26/26/7 27/27/7
f 28/28/8 29/29/8 30/30/8
f 31/31/9 32/32/9 33/33/9
f 34/34/10 35/35/10 36/36/10
f 37/37/11 38/38/11 39/39/11
f 40/40/12 41/41/12 42/42/12
f 25/25/7 43/43/7 26/26/7
f 28/28/8 44/44/8 29/29/8
f 31/31/9 45/45/9 32/32/9
f 34/34/10 46/46/10 35/35/10
f 37/37/11 47/47/11 38/38/11
f 40/40/12 48/48/12 41/41/12
o Floor
v -7.750000 -0.000001 3.750000
v -8.250000 0.000001 -3.750000
v -8.250000 -0.000001 3.750000
v -7.750000 0.000001 -3.750000
vt 1.000000 0.000000
vt 0.000000 1.000000
vt 0.000000 0.000000
vt 1.000000 1.000000
vn 0.0000 1.0000 0.0000
usemtl Default_OBJ
s 1
f 49/49/13 50/50/13 51/51/13
f 49/49/13 52/52/13 50/50/13
o Floor.001
v -8.261134 0.000000 3.750000
v -3.261134 -0.000000 4.250000
v -8.261134 0.000000 4.250000
v -3.261134 -0.000000 3.750000
vt 1.000000 0.000000
vt 0.000000 0.000000
vt 0.000000 1.000000
vt 1.000000 1.000000
vn 0.0000 1.0000 0.0000
usemtl Default_OBJ
s 1
f 53/53/14 55/54/14 54/55/14
f 53/53/14 54/55/14 56/56/14
