# Blender v2.83.4 OBJ File: 'plus.blend'
# www.blender.org
mtllib plus.mtl
o Floor.004_Floor.017
v -0.797764 0.652226 4.014624
v -0.497764 0.652226 4.014624
v -0.497764 -0.347774 4.014624
v -0.797764 -0.347774 4.014624
vt 1.000000 0.000000
vt 0.000000 0.000000
vt 0.000000 1.000000
vt 1.000000 1.000000
vn 0.0000 0.0000 -1.0000
usemtl Default_OBJ.006
s 1
f 1/1/1 2/2/1 3/3/1
f 1/1/1 3/3/1 4/4/1
o Floor.005_Floor.018
v -0.160574 -0.000001 4.000000
v -1.160574 0.299999 4.000000
v -0.160574 0.299999 4.000000
v -1.160574 -0.000001 4.000000
vt 1.000000 0.000000
vt 0.000000 1.000000
vt 0.000000 0.000000
vt 1.000000 1.000000
vn 0.0000 0.0000 -1.0000
usemtl Default_OBJ.006
s 1
f 5/5/2 6/6/2 7/7/2
f 5/5/2 8/8/2 6/6/2
